<svg class="svg-icon" style="width: 1em; height: 1em;vertical-align: middle;fill: currentColor;overflow: hidden;" viewBox="0 0 1024 1024" version="1.1" xmlns="http://www.w3.org/2000/svg"><path d="M512 16C238 16 16 238 16 512s222 496 496 496 496-222 496-496S786 16 512 16z m0 192c97.2 0 176 78.8 176 176s-78.8 176-176 176-176-78.8-176-176 78.8-176 176-176z m0 688c-117.4 0-222.6-53.2-293-136.4 37.6-70.8 111.2-119.6 197-119.6 4.8 0 9.6 0.8 14.2 2.2 26 8.4 53.2 13.8 81.8 13.8 28.6 0 56-5.4 81.8-13.8 4.6-1.4 9.4-2.2 14.2-2.2 85.8 0 159.4 48.8 197 119.6C734.6 842.8 629.4 896 512 896z"  /></svg>